<?xml version="1.0" encoding="utf-8"?>
<!-- Generator: Adobe Illustrator 23.0.3, SVG Export Plug-In . SVG Version: 6.00 Build 0)  -->
<svg version="1.1" id="Layer_1" xmlns="http://www.w3.org/2000/svg" xmlns:xlink="http://www.w3.org/1999/xlink" x="0px" y="0px"
	 viewBox="0 0 594.5 402.1" style="enable-background:new 0 0 594.5 402.1;" xml:space="preserve">
<style type="text/css">
	.st0{fill:#4C5561;}
	.st1{fill:#596574;}
	.st2{fill:#E2A8A4;}
	.st3{fill:#BEBEC0;}
	.st4{fill:#FFFFFF;}
	.st5{fill:#AEAEAD;}
	.st6{fill:#E2AE51;}
	.st7{fill:#977032;}
	.st8{fill:#AEAEAE;}
	.st9{fill:#C69851;}
</style>
<path class="st0" d="M394.7,0c-36.9,0-71.5,10-101.1,27.5c2.2,0,3.8,0.4,4.7,1.2c8.6,7.8,1.5,63-10,86.5
	c14.5,21.6,22.9,47.4,22.9,75.2c0,62.4-42.5,115.1-100.7,131.5c0,0.1-0.9,0.4-1,0.4c16.2,39,53,79.8,53,79.8s-9.5-26.9-8.6-60.9
	c36.1,35.9,85.9,58.2,140.9,58.2c110.3,0,199.7-89.4,199.7-199.7C594.3,89.4,504.9,0,394.7,0z"/>
<g>
	<path class="st1" d="M320.8,93.1H456V142h109.6c-8.7-26-23.5-49.9-43.4-69.8c-34.1-34.1-79.4-52.9-127.5-52.9
		c-25.9,0-50.9,5.4-73.9,15.7V93.1z"/>
	<path class="st1" d="M499.6,244.6v83H308.3V358c26.2,14.3,55.7,21.9,86.3,21.9c48.2,0,93.4-18.8,127.5-52.8
		c23.2-23.2,39.3-51.6,47.2-82.5H499.6z"/>
</g>
<g>
	<path class="st2" d="M321.7,102.2c2.7,0,5.3,0,8,0c2.2,0,3.9,0.7,5.2,2.2c1.2,1.4,1.9,3.4,2,5.9l0.1,15.4c0,2.8-0.3,5-0.9,6.4
		c-0.6,1.5-1.3,2.5-2.1,3.1c-0.8,0.6-1.6,0.9-2.3,0.9l5.2,11.3h-4.8l-5.1-11.2l-0.1,11.2h-5.1L321.7,102.2z M326.8,108v22.3h1.9
		c1,0,1.8-0.4,2.2-1.1c0.4-0.7,0.7-2.1,0.8-4c0.1-1.9,0.1-4.6,0.1-8c0-1.1,0-2.3,0-3.6c0-2.1-0.1-3.5-0.4-4.4
		c-0.3-0.8-1-1.2-2.1-1.2L326.8,108z"/>
	<path class="st2" d="M342.6,102.2c4.6,0,9.3,0,14.2,0v5.8h-9.1v22.3h9.1v5.8h-9.1v5.3h9.1v5.8h-12.6h-1.7L342.6,102.2z"/>
	<path class="st2" d="M362.5,102.2c2.7,0,5.4,0,8.1,0c2.2,0,3.9,0.7,5.2,2.2c1.2,1.4,1.9,3.4,2,5.9l-0.1,28.7c0,0.6-0.1,1.3-0.2,2.2
		s-0.4,1.8-0.8,2.8c-0.4,0.9-0.9,1.7-1.6,2.4c-0.7,0.6-1.6,1-2.7,1h-9.9c0-10,0-20,0-30.1C362.5,112.2,362.5,107.2,362.5,102.2z
		 M367.6,108v33.4h2c0.7,0,1.2,0,1.7-0.2s0.8-0.6,1.1-1.3c0.2-0.7,0.4-1.7,0.4-3.3l-0.1-23.1c0-2.1-0.1-3.5-0.4-4.4
		c-0.3-0.8-1-1.2-2.1-1.2L367.6,108z"/>
	<path class="st2" d="M383.4,102.2c4.6,0,9.3,0,14.2,0v5.8h-9.1v22.3h9.1v5.8h-9.1v5.3h9.1v5.8H385h-1.7L383.4,102.2z"/>
	<path class="st2" d="M410,102.2c2.7,0,5.4,0,8.1,0c2.2,0,3.9,0.7,5.2,2.2c1.2,1.4,1.9,3.4,2,5.9l-0.1,28.7c0,0.6-0.1,1.3-0.2,2.2
		s-0.4,1.8-0.8,2.8c-0.4,0.9-0.9,1.7-1.6,2.4c-0.7,0.6-1.6,1-2.7,1H410c0-10,0-20,0-30.1C409.9,112.2,410,107.2,410,102.2z M415,108
		v33.4h2c0.7,0,1.2,0,1.7-0.2s0.8-0.6,1.1-1.3c0.2-0.7,0.4-1.7,0.4-3.3l-0.1-23.1c0-2.1-0.1-3.5-0.4-4.4c-0.3-0.8-1-1.2-2.1-1.2
		L415,108z"/>
	<path class="st2" d="M430.8,102.2c4.6,0,9.3,0,14.2,0v5.8h-9.1v22.3h9.1v5.8h-9.1v5.3h9.1v5.8h-12.6h-1.7L430.8,102.2z"/>
</g>
<g>
	<path class="st3" d="M333,316.3l-2.8-18.4h-8.7l-2.8,18.4h-8.4l11.2-74.3h8.5l11.2,74.2L333,316.3L333,316.3z M328.7,288.4
		l-2.9-18.5l-2.9,18.5H328.7z"/>
	<path class="st3" d="M346.7,242.1l8.3-0.2l8.4,45.4v-45.2l8.3-0.2v74.4l-8.4,0.1l-8.3-32.6v32.5l-8.3,0.1V242.1z"/>
	<path class="st3" d="M377.1,242.1l8.4-0.1v74.3h-8.4V242.1z"/>
	<path class="st3" d="M399.4,242l8.2,43.8l8.3-43.7l8.3-0.1v74.3h-8.4v-29.4l-3.7,19.8c-3,0-5.9,0-8.9,0l-3.8-20.1v29.7H391v-74.4
		h8.4V242z"/>
	<path class="st3" d="M452.2,316.3l-2.8-18.4h-8.7l-2.8,18.4h-8.4l11.2-74.3h8.5l11.2,74.2L452.2,316.3L452.2,316.3z M448,288.4
		l-2.9-18.5l-2.9,18.5H448z"/>
	<path class="st3" d="M466,242.1l8.4-0.1v64.8h15.1v9.6c-2.2,0-4.4,0-6.7,0c-5.6,0-11.2,0-16.8,0V242.1z"/>
</g>
<g>
	<path class="st4" d="M321.9,155.3c4.6,0,9.3-0.1,13.9,0c3.8,0,6.8,1.3,9,3.7c2.2,2.5,3.3,5.9,3.5,10.2l0.1,26.7
		c0,4.6-0.5,8.1-1.3,10.7c-0.9,2.5-2,4.3-3.3,5.4c-1.3,1.1-2.6,1.7-3.9,1.9s-2.3,0.3-3.1,0.2l-6.1,0.1v19.4h-8.9L321.9,155.3z
		 M330.8,165.3v38.8h3.3c1.8,0,3.1-0.6,3.8-2c0.8-1.3,1.2-3.6,1.4-6.9c0.2-3.3,0.2-7.9,0.2-13.8c0-1.9,0-4,0-6.3
		c0.1-3.6-0.2-6.1-0.8-7.6c-0.6-1.5-1.8-2.2-3.7-2.2H330.8z"/>
	<path class="st4" d="M354.2,155.3c4.6,0,9.3-0.1,13.9,0c3.9,0,6.9,1.3,9,3.7c2.2,2.5,3.3,5.9,3.5,10.2l0.1,26.7
		c-0.1,4.9-0.6,8.6-1.6,11.2c-1,2.6-2.2,4.4-3.6,5.3c-1.4,1-2.8,1.5-4.1,1.6l9,19.7H372l-8.9-19.5l-0.2,19.4H354L354.2,155.3z
		 M363,165.3v38.8h3.3c1.8,0,3.1-0.6,3.9-2c0.7-1.3,1.2-3.6,1.4-6.9c0.1-3.3,0.2-7.9,0.1-13.8c0-1.9,0-4,0-6.3
		c0.1-3.6-0.2-6.1-0.8-7.6c-0.6-1.5-1.8-2.2-3.7-2.2H363z"/>
	<path class="st4" d="M396.4,233.2c-1.4-0.4-2.9-1.1-4.4-2.1c-1.5-1.1-2.8-2.7-3.9-4.8s-1.7-4.8-1.8-8.3v-47.2
		c0.1-3.3,0.7-6.1,2-8.4c1.3-2.3,3-4,5-5.3c2-1.2,4.1-1.9,6.2-1.9c3.9,0,7,1.3,9.3,3.7c2.4,2.5,3.6,5.9,3.8,10.2
		c0.1,16.1,0.1,32.4,0,48.7c-0.2,4.5-1.4,8.2-3.8,11.2s-5.5,4.5-9.4,4.7C398.9,233.7,397.8,233.5,396.4,233.2z M403.8,175.1
		c0-1.8-0.1-3.4-0.3-4.9c-0.2-1.5-0.6-2.7-1.3-3.5c-0.6-0.9-1.6-1.3-2.8-1.3c-1.8,0.1-3,1.1-3.5,2.8c-0.5,1.8-0.8,3.9-0.7,6.5v39
		c-0.1,3.2,0.2,5.6,0.7,7.2c0.5,1.6,1.7,2.5,3.6,2.6c1.3,0,2.2-0.4,2.8-1.1c0.6-0.7,1.1-1.8,1.3-3.3c0.2-1.5,0.3-3.2,0.3-5.3
		C404,200.8,404,187.9,403.8,175.1z"/>
	<path class="st4" d="M444.1,155.3v10H436v68.4h-8.9v-68.4h-8.6v-10C421.4,155.3,429.9,155.3,444.1,155.3z"/>
	<path class="st4" d="M449.9,155.3c8,0,16.2,0,24.7,0v10h-15.9v38.9h15.9v10.1h-15.9v9.3h15.9v10.1h-21.9h-2.9L449.9,155.3z"/>
	<path class="st4" d="M557.3,233.2c-1.4-0.4-2.9-1.1-4.4-2.1c-1.5-1.1-2.8-2.7-3.9-4.8c-1.1-2.1-1.7-4.8-1.8-8.3v-47.2
		c0.1-3.3,0.7-6.1,2-8.4c1.3-2.3,3-4,5-5.3c2-1.2,4.1-1.9,6.2-1.9c3.9,0,7,1.3,9.3,3.7c2.4,2.5,3.6,5.9,3.8,10.2
		c0.1,7.2,0.1,14.4,0.1,21.6c0,9,0,18-0.1,27.1c-0.2,4.5-1.4,8.2-3.8,11.2c-2.4,3-5.5,4.5-9.4,4.7
		C559.8,233.7,558.8,233.5,557.3,233.2z M564.8,175.1c0-1.8-0.1-3.4-0.3-4.9s-0.6-2.7-1.3-3.5c-0.6-0.9-1.6-1.3-2.8-1.3
		c-1.8,0.1-3,1.1-3.5,2.8c-0.5,1.8-0.8,3.9-0.7,6.5v39c-0.1,3.2,0.2,5.6,0.7,7.2c0.5,1.6,1.7,2.5,3.6,2.6c1.3,0,2.2-0.4,2.8-1.1
		c0.6-0.7,1.1-1.8,1.3-3.3s0.3-3.2,0.3-5.3C564.9,200.8,564.9,187.9,564.8,175.1z"/>
	<path class="st4" d="M533.1,164.3c2.1-0.1,3.7-1.1,4.9-2.9c1.2-2,2.2-4.6,2.9-7.9l-5.3-2c-0.5,1.3-1,2.2-1.5,2.9s-1.2,1-2.2,1h-0.1
		v-0.1h-0.5c-0.4-0.1-0.8-0.2-1.3-0.4c-0.7-0.3-1.5-0.7-2.3-1.1c-0.8-0.4-1.7-0.7-2.6-1.1c-0.9-0.3-1.9-0.5-2.9-0.5
		c-1.1,0-2.1,0.3-3,0.8c-0.8,0.5-1.6,1.3-2.2,2.2c-0.6,0.9-1.2,2.1-1.6,3.4c-0.5,1.3-0.9,2.8-1.3,4.4l5.3,2c0.5-1.3,1-2.2,1.5-2.9
		c0.3-0.3,0.6-0.6,1-0.8L511,233.5h8.8l3-19.4h9.1l2.9,19.4h8.8L533.1,164.3z M524.2,204.2l3-19.5l3.1,19.5H524.2z"/>
	<path class="st4" d="M498.1,204.3v9.5c0,2.1-0.1,3.9-0.3,5.3c-0.2,1.5-0.6,2.5-1.3,3.3c-0.6,0.7-1.6,1.1-2.8,1.1
		c-1.8,0-3-0.8-3.5-2.4c-0.6-1.6-0.8-3.9-0.8-7.1v-39.3c0-2.6,0.2-4.7,0.8-6.5c0.5-1.7,1.7-2.7,3.5-2.8c1.9,0,3.1,0.7,3.7,2.2
		c0.5,1.4,0.8,3.9,0.8,7.6v9.4h8.9v-15.3c-0.2-4.4-1.4-7.8-3.8-10.2c-2.4-2.5-5.5-3.7-9.3-3.7c-2.1,0.1-4.2,0.7-6.2,1.9
		s-3.7,3-5,5.3s-2,5.1-2,8.4l-0.1,47.3c0.1,3.4,0.8,6.2,1.9,8.2c0.6,1.2,1.3,2.2,2.1,3l-4.8,8.5l8.3,4.2l2.9-8.8
		c1.4,0.3,2.4,0.5,3.1,0.5c3.9-0.1,7-1.6,9.4-4.6s3.6-6.7,3.8-11.1v-13.7h-9.3V204.3z"/>
</g>
<path class="st3" d="M197.8,303.4c36.8-2,69.8-18.1,93.5-42.8c12.6-20.5,19.8-44.6,19.8-70.3c0-27.8-8.4-53.6-22.9-75.2
	c11.5-23.6,18.6-78.7,10-86.5c-7-6.4-60.4,13.6-73.3,33.9c-0.2,0.3-0.4,0.7-0.6,1c-8.8-3.5-18.1-6.2-27.7-7.9
	c-12.5,29.5-24.4,69.3-24.4,114.2c0,68.8,12.5,109.5,25.3,133.3C200.9,309.2,201,309.4,197.8,303.4z"/>
<path class="st5" d="M197.8,303.4c4.3,8,7.6,14.1,11.6,18.8c35.1-9.9,64.1-32.3,82-61.7C267.6,285.3,234.6,301.4,197.8,303.4z"/>
<path class="st6" d="M50.7,230.5c-0.4,0.3-0.8,0.6-1.2,0.9C49.9,231.1,50.3,230.8,50.7,230.5z"/>
<path class="st6" d="M48.8,231.8c-0.4,0.2-0.7,0.5-1.1,0.7C48.1,232.3,48.5,232.1,48.8,231.8z"/>
<path class="st6" d="M52.6,229c-0.5,0.4-1,0.9-1.5,1.2C51.6,229.8,52.1,229.4,52.6,229z"/>
<path class="st6" d="M45,233.8c-0.4,0.2-0.8,0.3-1.2,0.4C44.2,234.2,44.6,234,45,233.8z"/>
<path class="st6" d="M43.1,234.5c-0.4,0.1-0.9,0.3-1.3,0.4C42.3,234.8,42.7,234.7,43.1,234.5z"/>
<path class="st6" d="M47.1,232.8c-0.5,0.3-1.1,0.5-1.6,0.8C46.1,233.4,46.6,233.1,47.1,232.8z"/>
<path class="st6" d="M54.2,227.5c-0.3,0.3-0.7,0.6-1,0.9C53.6,228.1,53.9,227.8,54.2,227.5z"/>
<path class="st6" d="M59.3,221.7c-0.3,0.4-0.6,0.8-0.9,1.2C58.7,222.5,59,222.1,59.3,221.7z"/>
<path class="st6" d="M59.9,221c0.4-0.6,0.8-1.2,1.3-1.8c21,49.5,70.7,84.4,128.8,84.4c2.6,0,5.3-0.1,7.9-0.2
	c-12.9-23.7-25.5-64.5-25.5-133.6c0-44.8,11.8-84.6,24.3-114c-7.7-1.3-15.7-2-23.8-2c-30.9,0-59.4,9.9-82.4,26.6
	c7.3-4.8,11.9-7.5,11.9-7.5S89.4,181.2,59.9,221z"/>
<path class="st6" d="M204.2,313.9C204.2,314,204.2,314,204.2,313.9C204.2,314,204.2,314,204.2,313.9z"/>
<path class="st6" d="M57.8,223.6c-0.4,0.4-0.7,0.8-1.1,1.2C57.1,224.5,57.4,224.1,57.8,223.6z"/>
<path class="st6" d="M208.8,320.1c0.1,0.1,0.1,0.1,0.2,0.2C208.9,320.2,208.9,320.2,208.8,320.1z"/>
<path class="st6" d="M205.8,316.1l0.1,0.1C205.8,316.2,205.8,316.2,205.8,316.1z"/>
<path class="st6" d="M54.8,226.9c0.5-0.5,1-1,1.4-1.5C55.8,225.9,55.3,226.4,54.8,226.9z"/>
<path class="st6" d="M207.3,318.2c0,0.1,0.1,0.1,0.1,0.2C207.4,318.3,207.4,318.2,207.3,318.2z"/>
<path class="st7" d="M172.3,169.9c0-0.7,0-1.4,0-2.1c-12.4,0.4-24.6,7.6-31.5,21.6l-9.8,19.8c-11.7,23.6,3.4,52.7,27.3,52.7h23.9
	C176.3,238.8,172.3,208.9,172.3,169.9z"/>
<path class="st7" d="M135.2,131.4c-15.4-20.3-40.6,19.2-43.7,41.8c-3.2,23.5,13.3,40.8,27.6,33C140.5,194.3,153.6,155.6,135.2,131.4
	z"/>
<path class="st4" d="M182.1,261.8h4.8c23.6,0,38.7-28.2,27.9-51.9l-14.4-23.6c-5.9-12.8-17-18.7-28.1-18.7c0,0.9,0,1.3,0,2.1
	C172.3,208.8,176.3,238.8,182.1,261.8z"/>
<path class="st4" d="M176.7,208.2c-3.3,0.2-6-1.2-6.1-3s2.5-3.5,5.8-3.7s6,1.2,6.1,3C182.6,206.3,180,208,176.7,208.2z"/>
<path class="st0" d="M144,216.7c0,1-0.7,1.8-1.6,1.8c-0.9,0-1.6-0.8-1.6-1.8s0.7-1.8,1.6-1.8C143.3,214.9,144,215.7,144,216.7z"/>
<path class="st0" d="M152.1,216.7c0,1-0.7,1.8-1.6,1.8c-0.9,0-1.6-0.8-1.6-1.8s0.7-1.8,1.6-1.8C151.4,214.9,152.1,215.7,152.1,216.7
	z"/>
<path class="st0" d="M148,222.5c0,1-0.7,1.8-1.6,1.8c-0.9,0-1.6-0.8-1.6-1.8s0.7-1.8,1.6-1.8S148,221.5,148,222.5z"/>
<path class="st0" d="M115.1,179.1c4,0,7.3,1.2,9.9,3.3c0-5.5-4-10-8.9-10c-4.5,0-8.1,3.8-8.7,8.6
	C109.5,179.8,112.1,179.1,115.1,179.1z"/>
<path class="st0" d="M241.6,229.7h-30.5c-0.7,0-1.3-0.7-1.3-1.5s0.6-1.5,1.3-1.5h30.5c0.7,0,1.3,0.7,1.3,1.5
	C242.9,229,242.3,229.7,241.6,229.7z"/>
<path class="st0" d="M238.9,247.8c-0.1,0-0.3,0-0.4-0.1l-28.9-10.9c-0.7-0.3-1-1.1-0.8-1.8c0.2-0.8,0.9-1.2,1.6-0.9l28.9,10.9
	c0.7,0.3,1,1.1,0.8,1.8C240,247.5,239.5,247.8,238.9,247.8z"/>
<path class="st0" d="M194.7,216.5c0,1-0.7,1.8-1.6,1.8s-1.6-0.8-1.6-1.8s0.7-1.8,1.6-1.8S194.7,215.5,194.7,216.5z"/>
<path class="st0" d="M202.8,216.5c0,1-0.7,1.8-1.6,1.8c-0.9,0-1.6-0.8-1.6-1.8s0.7-1.8,1.6-1.8C202.1,214.7,202.8,215.5,202.8,216.5
	z"/>
<path class="st0" d="M198.7,222.3c0,1-0.7,1.8-1.6,1.8c-0.9,0-1.6-0.8-1.6-1.8s0.7-1.8,1.6-1.8C197.9,220.5,198.7,221.3,198.7,222.3
	z"/>
<path class="st5" d="M305.7,157.5c0.7-1.2-13.4,10.4-30.4,8.9c-0.9-0.1-1.6,2.9-1,3.6C279.2,174.3,316.1,181.7,305.7,157.5z"/>
<path class="st5" d="M309.8,182.8c0.9-1-18.6,6-32.3,2.7c-0.9-0.2-2.1,2.6-1.5,3.3C280.1,194.1,316.2,208.7,309.8,182.8z"/>
<path class="st0" d="M227.1,179c4,0,7.3,1.3,9.9,3.3c0-5.5-4-10-8.9-10c-4.5,0-8.2,3.8-8.8,8.6C221.6,179.7,224.2,179,227.1,179z"/>
<path class="st0" d="M199.1,230.9c-0.5-0.5-1.3-0.5-1.8,0.1c-3.7,4.7-7.3,6.7-10.7,6c-4-0.8-7.1-5.2-9-8.9V228
	c-0.7-1.4-1.3-2.7-1.7-3.6c0.4-0.2,0.8-0.4,1.2-0.7l0,0c0.4-0.3,0.8-0.7,1.1-1.1l10.8-14.5c2.8-3.7,0.3-9.1-4.2-9.1h-9.9l0,0h-11.7
	c-4.4,0-6.9,5.4-4.2,9.1l10.8,14.5c0.6,0.9,1.5,1.5,2.4,1.8c-2,7-4.8,11.2-8.4,12.3c-6.3,1.9-13.2-5.7-13.3-5.8
	c-0.5-0.6-1.3-0.6-1.8,0s-0.5,1.5,0,2.1c0.3,0.4,8.1,8.9,15.8,6.5c4.2-1.3,7.4-5.4,9.7-12.4c1,2.1,2.4,4.8,4.3,7.2c0,0,0,0,0,0.1
	c2.1,2.6,4.6,4.8,7.7,5.5c0.6,0.1,1.2,0.2,1.8,0.2c3.7,0,7.5-2.4,11.3-7.2C199.7,232.4,199.7,231.4,199.1,230.9z"/>
<path class="st4" d="M178.1,201.4c-1.1,0.1-2.2,0.3-3,0.7l0,0c-1.7,0.7-2.8,1.8-2.7,3s1.3,2.3,3.1,2.8l0,0c0.9,0.2,1.9,0.3,2.9,0.3
	c3.3-0.2,5.9-1.8,5.8-3.7C184.1,202.5,181.4,201.2,178.1,201.4z"/>
<path class="st2" d="M281.4,105.9c6.6-12.5,10.7-43.9,5.9-48.3c-3.8-3.4-31.9,7-39.7,17.9C260.5,83.8,271.9,94.1,281.4,105.9z"/>
<path class="st8" d="M244.4,73.6c-2.2-5.9-2.5-11.2,0-15.2c7.9-12.4,30.9-24.7,49.2-31c-15-0.2-57.4,17.3-68.7,35.2
	c-0.2,0.3-0.4,0.7-0.6,1C231.3,66.4,238.1,69.7,244.4,73.6z"/>
<path class="st7" d="M102.3,73c0,0-149,86.4-87.3,150.5C76.8,287.6,102.3,73,102.3,73z"/>
<g>
	<path class="st9" d="M197.8,303.4c-2.6,0.1-5.2,0.2-7.9,0.2c-58,0-107.8-34.8-128.8-84.4c-6.3,9-13.3,14.9-21.2,16
		c18.9,53.6,70.7,92.1,131.7,92.1c13.4,0,25.4-1.8,37.8-5.1C205.5,317.7,202.1,311.4,197.8,303.4z"/>
</g>
</svg>
